<svg width="14" height="19" viewBox="0 0 14 19" fill="none" xmlns="http://www.w3.org/2000/svg">
<path d="M2.76712 0.364149C2.46575 0.128523 2.08219 0 1.63014 0C0.726027 0 9.53674e-07 0.556934 9.53674e-07 1.26381C9.53674e-07 1.61725 0.191781 1.93856 0.50685 2.18489L10.0959 9.51071L0.50685 16.8151C0.191781 17.0614 9.53674e-07 17.3935 9.53674e-07 17.7362C9.53674e-07 18.4431 0.726027 19 1.63014 19C2.08219 19 2.46575 18.8715 2.76712 18.6359L13.4247 10.4961C13.8082 10.2176 13.9863 9.87486 14 9.5C14 9.12514 13.8082 8.80383 13.4247 8.51466L2.76712 0.364149Z" fill="#333333"/>
</svg>
