<svg width="19" height="32" viewBox="0 0 19 32" fill="none" xmlns="http://www.w3.org/2000/svg">
<path d="M15.2446 31.3867C15.6536 31.7835 16.1742 32 16.7877 32C18.0147 32 19 31.062 19 29.8715C19 29.2762 18.7397 28.7351 18.3121 28.3202L5.29843 15.982L18.3121 3.67982C18.7397 3.26494 19 2.70575 19 2.12852C19 0.937993 18.0147 0 16.7877 0C16.1742 0 15.6536 0.21646 15.2446 0.613303L0.780822 14.3224C0.260274 14.7914 0.018591 15.3687 0 16C0 16.6313 0.260274 17.1725 0.780822 17.6595L15.2446 31.3867Z" fill="#333333"/>
</svg>
